<svg width="48" height="48" viewBox="0 0 48 48" fill="none" xmlns="http://www.w3.org/2000/svg">
<g clip-path="url(#clip0_1_2)">
<rect width="48" height="48" fill="white"/>
<path fill-rule="evenodd" clip-rule="evenodd" d="M22.8054 11.5776L17.7962 21.9754C16.506 22.6306 15.0461 23 13.5 23C8.25329 23 4 18.7467 4 13.5C4 8.25329 8.25329 4 13.5 4C18.0881 4 21.9165 7.2525 22.8054 11.5776Z" fill="#5849BE"/>
<path d="M47.1724 48H0.827586C0.370759 48 0 47.6292 0 47.1724C0 46.7156 0.370759 46.3448 0.827586 46.3448H47.1724C47.6301 46.3448 48 46.7156 48 47.1724C48 47.6292 47.6301 48 47.1724 48Z" fill="#5849BE"/>
<path d="M18.2069 48L24 33.931L29.7931 48H18.2069Z" fill="#5849BE"/>
<path d="M42.9501 46.8083L24.9211 9.99972L26.3975 6.98482C26.5986 6.57434 26.429 6.07862 26.0185 5.87751C25.6072 5.67724 25.1115 5.84607 24.9112 6.25655L24 8.11862L23.088 6.25655C22.8869 5.84607 22.392 5.67641 21.9807 5.87751C21.5702 6.07862 21.4006 6.57434 21.6017 6.98482L23.0781 9.99972L5.04994 46.8083C4.84884 47.2188 5.01849 47.7145 5.42897 47.9156C5.54649 47.9727 5.6698 48 5.79228 48C6.09849 48 6.39311 47.8295 6.53628 47.5365L24 11.8817L41.4629 47.5365C41.6069 47.8295 41.9007 48 42.2069 48C42.3286 48 42.4535 47.9727 42.5694 47.9156C42.9807 47.7145 43.1504 47.2188 42.9501 46.8083Z" fill="#5849BE"/>
</g>
<defs>
<clipPath id="clip0_1_2">
<rect width="48" height="48" fill="white"/>
</clipPath>
</defs>
</svg>
